<svg width="12" height="20" viewBox="0 0 12 20" fill="none" xmlns="http://www.w3.org/2000/svg">
<path d="M10.9991 0.00416129L8.40562 0C5.49188 0 3.6089 1.93188 3.6089 4.92198V7.19134H1.00122C0.775887 7.19134 0.593414 7.37402 0.593414 7.59935V10.8874C0.593414 11.1127 0.776095 11.2952 1.00122 11.2952H3.6089V19.592C3.6089 19.8173 3.79137 19.9998 4.0167 19.9998H7.41897C7.64431 19.9998 7.82678 19.8171 7.82678 19.592V11.2952H10.8758C11.1011 11.2952 11.2836 11.1127 11.2836 10.8874L11.2848 7.59935C11.2848 7.49116 11.2417 7.38754 11.1654 7.31097C11.089 7.2344 10.985 7.19134 10.8768 7.19134H7.82678V5.26757C7.82678 4.34293 8.04712 3.87354 9.25161 3.87354L10.9987 3.87291C11.2239 3.87291 11.4063 3.69023 11.4063 3.46511V0.411968C11.4063 0.18705 11.2241 0.00457742 10.9991 0.00416129Z" fill="white"/>
</svg>
