<svg width="20" height="20" viewBox="0 0 20 20" fill="none" xmlns="http://www.w3.org/2000/svg">
<path d="M14.4805 0H5.51913C2.47588 0 0 2.476 0 5.51924V14.4806C0 17.524 2.47588 19.9999 5.51913 19.9999H14.4805C17.524 19.9999 19.9999 17.5239 19.9999 14.4806V5.51924C20 2.476 17.524 0 14.4805 0ZM18.2255 14.4806C18.2255 16.5455 16.5455 18.2254 14.4806 18.2254H5.51913C3.45433 18.2255 1.77449 16.5455 1.77449 14.4806V5.51924C1.77449 3.45445 3.45433 1.77449 5.51913 1.77449H14.4805C16.5454 1.77449 18.2254 3.45445 18.2254 5.51924V14.4806H18.2255Z" fill="white"/>
<path d="M9.99993 4.84692C7.15827 4.84692 4.84647 7.15872 4.84647 10.0004C4.84647 12.8419 7.15827 15.1536 9.99993 15.1536C12.8416 15.1536 15.1534 12.8419 15.1534 10.0004C15.1534 7.15872 12.8416 4.84692 9.99993 4.84692ZM9.99993 13.379C8.13684 13.379 6.62095 11.8634 6.62095 10.0003C6.62095 8.13706 8.13672 6.62129 9.99993 6.62129C11.8631 6.62129 13.3789 8.13706 13.3789 10.0003C13.3789 11.8634 11.863 13.379 9.99993 13.379Z" fill="white"/>
<path d="M15.3695 3.34204C15.0276 3.34204 14.6918 3.48045 14.4503 3.72296C14.2077 3.96429 14.0682 4.30026 14.0682 4.64333C14.0682 4.98533 14.2078 5.32118 14.4503 5.5637C14.6916 5.80503 15.0276 5.94462 15.3695 5.94462C15.7126 5.94462 16.0474 5.80503 16.2899 5.5637C16.5324 5.32118 16.6708 4.98522 16.6708 4.64333C16.6708 4.30026 16.5324 3.96429 16.2899 3.72296C16.0485 3.48045 15.7126 3.34204 15.3695 3.34204Z" fill="white"/>
</svg>
