<svg width="107" height="49" viewBox="0 0 107 49" fill="none" xmlns="http://www.w3.org/2000/svg">
    <path d="M57.9515 48.7214H56.8066V43.1125C56.8066 42.4396 56.5913 41.8983 56.1618 41.4897C55.7313 41.081 55.2258 40.8767 54.6431 40.8767C54.0745 40.8767 53.5711 41.081 53.1341 41.4897C52.6972 41.8983 52.4786 42.4386 52.4786 43.1125V48.7214H51.3337V43.1125C51.3337 42.4396 51.1185 41.8983 50.689 41.4897C50.2584 41.081 49.7529 40.8767 49.1703 40.8767C48.6016 40.8767 48.0982 41.081 47.6613 41.4897C47.2243 41.8983 47.0059 42.4386 47.0059 43.1125V48.7214H45.8609V39.931L46.8184 40.7045C47.4706 40.0315 48.2546 39.6946 49.1703 39.6946C49.7251 39.6946 50.252 39.8304 50.7522 40.1032C51.2513 40.376 51.6401 40.7344 51.9174 41.1773C52.5836 40.1888 53.4918 39.6946 54.6431 39.6946C55.1283 39.6946 55.5695 39.7876 55.9648 39.9738C56.36 40.1599 56.6994 40.4006 56.9844 40.6938C57.2682 40.9879 57.5006 41.3388 57.6816 41.7464C57.8615 42.1551 57.9525 42.6097 57.9525 43.1115V48.7214H57.9515Z" fill="white"/>
    <path d="M67.3367 39.6936C68.5855 39.6936 69.6468 40.1451 70.5208 41.048C71.3947 41.9509 71.8317 43.0463 71.8317 44.3365C71.8317 45.5978 71.3947 46.6868 70.5208 47.6036C69.6468 48.5205 68.5855 48.9793 67.3367 48.9793C66.1158 48.9793 65.0608 48.5205 64.174 47.6036C63.2861 46.6868 62.8417 45.5978 62.8417 44.3365C62.8417 43.0474 63.2851 41.9509 64.174 41.048C65.0619 40.1451 66.1158 39.6936 67.3367 39.6936ZM67.3367 40.8757C66.3931 40.8757 65.5996 41.2084 64.9537 41.8749C64.309 42.5414 63.9855 43.3619 63.9855 44.3354C63.9855 45.31 64.3079 46.1295 64.9537 46.7959C65.5984 47.4624 66.3931 47.7951 67.3367 47.7951C68.2664 47.7951 69.0567 47.4592 69.709 46.7852C70.3612 46.1123 70.6868 45.295 70.6868 44.3354C70.6868 43.3758 70.3612 42.5585 69.709 41.8856C69.0567 41.2127 68.2664 40.8757 67.3367 40.8757Z" fill="white"/>
    <path d="M82.3418 39.9302H83.5904L79.8448 48.9999L76.0985 39.9302H77.3473L79.8448 45.9478L82.3418 39.9302Z" fill="white"/>
    <path d="M95.3062 45.9478L96.3058 46.5276C95.931 47.2582 95.3895 47.8498 94.6815 48.3002C93.9743 48.7506 93.1976 48.9774 92.3516 48.9774C91.1306 48.9774 90.0755 48.5184 89.1886 47.6016C88.3009 46.6848 87.8567 45.5958 87.8567 44.3345C87.8567 43.0454 88.3001 41.9489 89.1886 41.046C90.0763 40.1431 91.1306 39.6917 92.3516 39.6917C93.1274 39.6917 93.8599 39.8927 94.5467 40.2939C95.2335 40.6951 95.7644 41.2043 96.1392 41.8195L90.3336 47.1063C90.9159 47.5652 91.5888 47.7942 92.3524 47.7942C92.991 47.7942 93.57 47.6294 94.0894 47.3C94.6088 46.9726 95.0147 46.5211 95.3062 45.9478ZM89.5627 46.2708L94.5361 41.7146C93.9114 41.1562 93.1837 40.877 92.3516 40.877C91.4075 40.877 90.6145 41.2097 89.9685 41.8761C89.3234 42.5426 89 43.3631 89 44.3366C89.0008 45.0384 89.1878 45.6835 89.5627 46.2708Z" fill="white"/>
    <path d="M101.902 46.8508C102.18 47.4242 102.637 47.7109 103.275 47.7109C103.705 47.7109 104.066 47.5601 104.357 47.2595C104.649 46.9589 104.794 46.5866 104.794 46.1416C104.794 45.7832 104.694 45.4644 104.492 45.1852C104.291 44.906 104.038 44.723 103.733 44.6374L102.734 44.3368C102.235 44.1795 101.832 43.8961 101.527 43.4874C101.221 43.0788 101.068 42.6166 101.068 42.101C101.068 41.4559 101.287 40.9082 101.724 40.4567C102.16 40.0053 102.692 39.7795 103.315 39.7795C103.759 39.7795 104.172 39.909 104.553 40.1668C104.935 40.4246 105.208 40.7691 105.375 41.1981L104.334 41.6495C104.169 41.1906 103.828 40.9617 103.315 40.9617C102.996 40.9617 102.732 41.0761 102.525 41.3051C102.317 41.534 102.213 41.7993 102.213 42.0999C102.213 42.6733 102.484 43.0381 103.024 43.1964L104.024 43.4971C104.592 43.6554 105.055 43.9773 105.407 44.4641C105.761 44.9509 105.938 45.5104 105.938 46.1405C105.938 46.6561 105.82 47.1225 105.585 47.5376C105.349 47.9538 105.029 48.2822 104.627 48.5261C104.224 48.7701 103.773 48.892 103.274 48.892C102.775 48.892 102.317 48.7594 101.902 48.494C101.485 48.2287 101.152 47.8672 100.902 47.4082L101.902 46.8508Z" fill="white"/>
    <path d="M44.7321 19.9909C44.7321 15.0592 44.7428 10.1285 44.7182 5.19673C44.7149 4.56663 44.8852 4.38049 45.5225 4.38583C49.2249 4.41257 52.9274 4.40509 56.6298 4.38262C57.0957 4.37941 57.2392 4.52812 57.2253 4.96673C57.2039 5.62786 57.1814 6.29327 57.2307 6.95225C57.2746 7.53743 57.0122 7.62944 56.5067 7.62516C54.038 7.6059 51.5694 7.63586 49.1018 7.60269C48.4806 7.59413 48.2728 7.75246 48.2792 8.40076C48.3103 11.6647 48.306 14.9297 48.2814 18.1947C48.2771 18.7456 48.4463 18.8933 48.9818 18.8858C50.9246 18.8569 52.8674 18.89 54.8102 18.8644C55.3543 18.8569 55.546 19.0473 55.5192 19.58C55.4871 20.2177 55.4828 20.8596 55.5203 21.4971C55.5513 22.0235 55.3371 22.155 54.8423 22.1497C52.8996 22.1261 50.9567 22.1615 49.014 22.1273C48.4281 22.1176 48.2803 22.3176 48.2836 22.8739C48.3028 26.8696 48.2824 30.8642 48.306 34.8599C48.3092 35.475 48.1603 35.7328 47.5049 35.6804C46.8238 35.6258 46.1319 35.6333 45.4497 35.6793C44.8552 35.7189 44.7203 35.4707 44.7214 34.9241C44.7385 29.9442 44.7321 24.9675 44.7321 19.9909Z" fill="white"/>
    <path d="M75.0444 21.7117C75.0444 26.0935 75.0337 30.4765 75.0562 34.8583C75.0595 35.4734 74.9106 35.7313 74.2551 35.6789C73.574 35.6243 72.8821 35.6254 72.2009 35.6789C71.5283 35.7324 71.4737 35.3911 71.4748 34.8541C71.4876 28.4182 71.4834 21.9813 71.4834 15.5454C71.4834 13.1491 71.4694 10.7517 71.4941 8.35643C71.4994 7.80017 71.3473 7.59049 70.7615 7.60547C69.2996 7.64183 67.8366 7.60012 66.3747 7.62793C65.8692 7.63756 65.6785 7.48458 65.7096 6.96573C65.7492 6.30674 65.7321 5.6424 65.7139 4.98127C65.7032 4.59187 65.8081 4.39395 66.2472 4.39502C70.9318 4.40465 75.6153 4.40465 80.2999 4.39716C80.6897 4.39609 80.8225 4.55336 80.8128 4.92778C80.7958 5.63491 80.7839 6.34419 80.8171 7.05025C80.8396 7.52202 80.6372 7.63007 80.2099 7.62472C78.7704 7.60654 77.3289 7.65895 75.8916 7.60012C75.1644 7.57016 75.0252 7.83012 75.0295 8.49878C75.0584 12.9009 75.0444 17.3063 75.0444 21.7117Z" fill="white"/>
    <path d="M90.5451 11.5612C92.6325 12.4866 93.303 14.3009 93.5055 16.3689C93.5904 17.229 93.5275 18.103 93.548 18.9706C93.5569 19.3589 93.3887 19.498 93.0106 19.483C92.5084 19.4638 92.0037 19.4594 91.5014 19.483C90.9804 19.5076 90.826 19.2573 90.8342 18.7759C90.8481 17.9318 90.8693 17.0835 90.8073 16.2426C90.6545 14.195 88.9077 13.1017 86.9828 13.8131C85.9375 14.2004 85.3046 15.329 85.3038 16.8492C85.2997 21.1658 85.303 25.4824 85.3013 29.799C85.3013 30.2558 85.3168 30.7072 85.4222 31.1587C85.7823 32.6938 86.777 33.4555 88.3377 33.3603C89.7154 33.2758 90.7076 32.2969 90.8015 30.8068C90.8742 29.646 90.8514 28.4778 90.8301 27.3139C90.8211 26.8336 90.9918 26.6817 91.4598 26.6656C93.5439 26.595 93.548 26.5832 93.5406 28.6362C93.5373 29.5701 93.5774 30.5039 93.4124 31.4358C92.8073 34.8623 90.3442 36.1996 87.2638 35.8711C84.3507 35.5598 82.7346 33.7401 82.5737 30.688C82.3385 26.2173 82.5108 21.7403 82.4912 17.2664C82.4879 16.432 82.6178 15.59 82.8383 14.7674C83.5806 12.0009 85.8714 10.944 88.4324 11.0755C88.8628 11.098 89.2875 11.2125 89.7154 11.2842C89.971 11.4457 90.2691 11.4703 90.5451 11.5612Z" fill="white"/>
    <path d="M59.9145 19.9903C59.9145 15.0607 59.9242 10.1301 59.9017 5.20045C59.8985 4.58318 60.0484 4.33392 60.6996 4.38741C61.3808 4.44197 62.0716 4.43234 62.7549 4.38955C63.345 4.35211 63.4927 4.59602 63.4885 5.1459C63.4682 7.93056 63.4789 10.7152 63.4789 13.4999C63.4789 20.5755 63.4789 27.651 63.4789 34.7266C63.4789 35.667 63.4767 35.667 62.5299 35.667C61.8905 35.667 61.2479 35.6349 60.6107 35.6777C60.0699 35.7141 59.8909 35.5354 59.9028 34.9876C59.9359 33.5049 59.9145 32.0211 59.9145 30.5373C59.9145 27.0199 59.9145 23.5057 59.9145 19.9903Z" fill="white"/>
    <path d="M90.5451 11.5614C90.2307 11.5861 89.9359 11.5507 89.7187 11.2865C90.0323 11.2619 90.3009 11.3764 90.5451 11.5614Z" fill="white"/>
    <path d="M106.731 15.8104C106.684 15.4466 106.636 15.0818 106.588 14.7181C106.508 14.5052 106.436 14.288 106.346 14.0805C105.308 11.7045 103.275 10.9792 100.927 11.0754C98.7426 11.1643 97.0252 12.1121 96.1857 14.2763C95.886 15.0508 95.73 15.8553 95.7275 16.679C95.7169 21.217 95.6867 25.7562 95.7357 30.2942C95.7659 33.0543 97.1248 35.3308 100.101 35.8208C102.569 36.2273 105.385 35.4827 106.448 32.6638C106.542 32.1621 106.635 31.6604 106.728 31.1597C106.752 30.9479 106.636 30.673 106.979 30.6055C106.979 25.9049 106.98 21.2053 106.98 16.5047C106.574 16.3891 106.78 16.0532 106.731 15.8104ZM104.125 23.4946C104.125 25.6631 104.123 27.8305 104.128 29.999C104.129 30.3894 104.085 30.7703 103.995 31.1511C103.63 32.6703 102.733 33.3934 101.229 33.3677C99.7798 33.3431 98.8676 32.5333 98.5638 31.0206C98.4544 30.4794 98.4535 29.9369 98.4544 29.3903C98.4593 25.3507 98.456 21.3112 98.4576 17.2717C98.4576 16.5849 98.496 15.9024 98.7704 15.2594C99.2726 14.0837 100.246 13.5189 101.567 13.6269C102.811 13.7296 103.628 14.4239 103.946 15.6402C104.075 16.1292 104.132 16.6213 104.129 17.1284C104.12 19.2497 104.125 21.3722 104.125 23.4946Z" fill="white"/>
    <path d="M0.0231681 20.4592C0.425865 20.84 0.152759 21.33 0.234156 21.7633C-0.099997 21.7098 0.0253101 21.4413 0.013529 21.2551C-0.004678 20.9909 0.0178131 20.7245 0.0231681 20.4592Z" fill="white"/>
    <path d="M0.235092 17.6843C0.175115 18.0855 0.398954 18.5359 0.0273171 18.8836C0.0219621 18.583 0.0176781 18.2813 0.0112521 17.9807C0.0091101 17.8213 0.0476661 17.6971 0.235092 17.6843Z" fill="white"/>
    <path d="M0.650751 15.4138C0.685023 15.7947 0.602556 16.1531 0.437622 16.4954C0.404421 16.1146 0.47832 15.7551 0.650751 15.4138Z" fill="white"/>
    <path d="M38.7816 12.5119C38.5812 12.3835 38.5416 12.1888 38.5577 11.9717C38.7055 12.1215 38.7751 12.3033 38.7816 12.5119Z" fill="white"/>
    <path d="M40.1683 18.4382C40.012 16.3938 39.5878 14.4061 38.7824 12.5105C38.655 12.3521 38.64 12.1478 38.5586 11.9703C36.5023 7.2653 33.1018 3.89119 28.4494 1.74411C23.2765 -0.643652 16.572 -0.34839 14.1623 1.24024C14.2726 1.3622 14.3925 1.27127 14.5072 1.25522C16.6084 0.964245 18.714 0.81768 20.825 1.13969C21.3069 1.21351 21.8145 1.26271 22.3597 1.62858C20.8807 1.7623 19.5612 1.59221 18.2395 1.61467C16.5753 1.64356 14.9473 1.8297 13.3558 2.27259C9.99389 3.20759 7.12899 4.97274 4.79313 7.56805C2.75609 9.83388 1.35414 12.442 0.650495 15.4139C0.562674 15.7712 0.528401 16.1392 0.437366 16.4954C0.369893 16.8913 0.30242 17.2882 0.236018 17.684C-0.0360169 18.0488 0.260651 18.511 0.0282432 18.8832C0.0261012 19.4085 0.0250302 19.9337 0.0228882 20.459C0.162118 20.6441 0.101071 20.8591 0.120349 21.0634C0.14177 21.2988 0.0475212 21.5534 0.233876 21.7631C0.306704 22.2402 0.364538 22.7195 0.454502 23.1934C0.996429 26.0711 2.13383 28.6814 3.98988 30.9622C5.25366 32.5155 6.80233 33.7362 8.40989 34.9215C10.0378 36.1208 11.9924 36.4749 13.7628 37.2911C13.7789 37.2985 13.7971 37.3018 13.8142 37.3071C14.7192 37.5981 15.6563 37.7415 16.5902 37.8998C17.6301 38.0153 18.6723 38.1181 19.7089 38.2539C20.2241 38.3212 20.7371 38.317 21.2523 38.3277C21.4386 38.3319 21.6411 38.2914 21.8082 38.4539C21.6497 38.5855 21.489 38.5555 21.3337 38.5481L21.3316 38.5471C20.5551 38.7898 19.7497 38.7674 18.9517 38.777C17.9878 38.7888 17.0229 38.7599 16.059 38.7481C15.5942 38.7481 15.1283 38.7481 14.6056 38.7481C14.7009 38.8326 14.7652 38.8893 14.823 38.9407C14.8402 38.9493 14.8552 38.961 14.8649 38.9782C15.4314 39.1439 15.9883 39.3504 16.5645 39.4681C20.5851 40.295 24.4813 39.8704 28.2266 38.2058C32.5171 36.2994 35.789 33.2718 37.9802 29.119C39.7432 25.7769 40.4575 22.2038 40.1683 18.4382ZM37.0635 21.4828C37.0581 21.6401 37.0742 21.8166 36.8546 21.8615C36.2559 21.9824 36.1767 22.4745 36.0825 22.9506C35.4345 26.237 34.2479 29.273 31.9281 31.7689C29.7132 34.1512 26.9361 35.4254 23.7402 35.8726C20.2048 36.3679 16.7883 35.8811 13.5529 34.4401C9.28707 32.5412 6.31502 29.3789 4.78885 24.9286C4.63783 24.4878 4.4472 24.0813 4.07663 23.6567C3.95025 24.3819 4.20837 24.9907 4.21907 25.6143C4.57572 26.6777 4.89381 27.7529 5.37683 28.7745C6.2015 30.5214 7.30356 32.0705 8.59086 33.4987C8.78155 33.7105 8.96686 33.9255 9.15428 34.1395C9.46053 34.2892 9.71328 34.5032 9.92537 34.7675C10.1021 34.9129 10.2788 35.0595 10.4555 35.205C10.5272 35.2414 10.599 35.2767 10.6708 35.313C10.7833 35.4008 11.0103 35.466 10.8936 35.6383C10.7961 35.7816 10.6568 35.6276 10.5605 35.5323C10.4855 35.465 10.4116 35.3965 10.3366 35.3291C10.0753 35.2531 9.90185 35.0541 9.71222 34.8787C9.45734 34.6658 9.20246 34.4529 8.94758 34.2389C8.12395 33.5938 7.53597 32.7509 6.89336 31.9368C5.30936 29.932 4.28441 27.695 3.76818 25.2089C3.25303 23.555 3.30658 21.8497 3.33871 20.152C3.39226 17.3096 3.88385 14.5634 5.28579 12.0419C6.68238 9.52894 8.83398 7.85154 11.3851 6.65124C13.269 5.76546 15.2332 5.08828 17.2821 4.69139C20.8818 3.99389 24.3507 4.46032 27.659 6.00509C31.8788 7.97564 34.8401 11.1433 36.5334 15.4909C36.8579 16.3243 36.8514 17.2079 37.0345 18.0606C37.2777 19.202 37.101 20.3424 37.0635 21.4828Z" fill="white"/>
    <path d="M19.8315 13.0625C21.0749 13.1117 22.2113 12.7982 23.3744 12.763C24.1476 12.7394 24.7956 12.9962 25.3847 13.5043C27.3896 15.2299 29.0668 17.2668 30.8532 19.1988C31.1692 19.5401 31.0942 19.9242 30.7868 20.2579C29.7083 21.4304 28.633 22.6071 27.546 23.7732C26.7394 24.6387 25.8988 25.471 25.0216 26.2648C24.4722 26.7622 23.8125 26.9409 23.0938 26.9537C22.3408 26.9676 21.5922 26.9055 20.8414 26.8574C20.3991 26.8296 19.9504 26.9055 19.5048 26.9323C19.4053 26.9388 19.2767 26.9955 19.2232 26.865C19.1739 26.7451 19.2864 26.6724 19.3571 26.5975C20.472 25.4079 21.5815 24.2151 22.705 23.034C23.3723 22.3322 24.0609 21.6518 24.7378 20.9607C25.6771 20.0022 25.6984 19.417 24.7121 18.5206C22.9524 16.9244 21.5055 15.0481 19.9301 13.2861C19.899 13.2507 19.8894 13.1962 19.8315 13.0625Z" fill="white"/>
    <path d="M11.8581 26.3971C13.4667 24.6641 15.0486 22.9074 16.7418 21.2546C16.806 21.1915 16.8682 21.1273 16.9314 21.0641C17.9778 20.0062 18.0195 19.4916 16.9271 18.4731C15.2949 16.9519 13.9165 15.2092 12.4482 13.5435C12.3496 13.4312 12.145 13.3274 12.2179 13.1541C12.2939 12.9744 12.5049 13.0793 12.6559 13.0622C13.4389 12.9744 14.2238 12.906 15.0057 12.8065C16.0296 12.676 16.9207 12.8493 17.7432 13.5703C19.7042 15.2905 21.3761 17.2771 23.1186 19.1996C23.4206 19.5333 23.3799 19.9452 23.0768 20.2693C21.1811 22.2966 19.3819 24.4169 17.3052 26.2698C16.9817 26.5586 16.6186 26.7865 16.1677 26.825C15.2991 27.0272 14.4231 26.8882 13.5524 26.8561C12.9183 26.8325 12.2822 26.9127 11.6567 26.8561C11.616 26.6196 11.7884 26.5341 11.8581 26.3971Z" fill="white"/>
    <path d="M11.8576 26.3975C11.8127 26.5258 11.7677 26.6542 11.7066 26.8254C13.2135 26.8254 14.6905 26.8254 16.1674 26.8254C15.6286 27.08 15.0567 27.0447 14.4934 26.988C13.6377 26.9024 12.7841 26.895 11.9273 26.9431C11.7667 26.9516 11.5471 27.1367 11.4539 26.9035C11.3789 26.7163 11.6178 26.6147 11.7259 26.482C11.757 26.4435 11.8127 26.4253 11.8576 26.3975Z" fill="white"/>
</svg>
