<svg width="131" height="60" viewBox="0 0 131 60" fill="none" xmlns="http://www.w3.org/2000/svg">
<path d="M70.9621 59.6589H69.5602V52.7908C69.5602 51.9668 69.2966 51.304 68.7707 50.8036C68.2435 50.3032 67.6245 50.053 66.911 50.053C66.2147 50.053 65.5983 50.3032 65.0632 50.8036C64.5282 51.304 64.2606 51.9655 64.2606 52.7908V59.6589H62.8587V52.7908C62.8587 51.9668 62.5951 51.304 62.0692 50.8036C61.542 50.3032 60.923 50.053 60.2096 50.053C59.5132 50.053 58.8968 50.3032 58.3618 50.8036C57.8267 51.304 57.5592 51.9655 57.5592 52.7908V59.6589H56.1572V48.895L57.3297 49.8421C58.1283 49.0181 59.0883 48.6055 60.2096 48.6055C60.8889 48.6055 61.5341 48.7718 62.1466 49.1059C62.7577 49.4399 63.2338 49.8787 63.5734 50.4211C64.3891 49.2107 65.5012 48.6055 66.911 48.6055C67.5051 48.6055 68.0454 48.7194 68.5294 48.9474C69.0133 49.1753 69.429 49.47 69.7779 49.829C70.1254 50.1892 70.41 50.6189 70.6316 51.118C70.8519 51.6184 70.9634 52.1751 70.9634 52.7895V59.6589H70.9621Z" fill="#3A3A34"/>
<path d="M82.4543 48.6045C83.9835 48.6045 85.2831 49.1573 86.3533 50.2629C87.4234 51.3685 87.9585 52.7099 87.9585 54.2897C87.9585 55.8342 87.4234 57.1677 86.3533 58.2903C85.2831 59.413 83.9835 59.9749 82.4543 59.9749C80.9593 59.9749 79.6675 59.413 78.5816 58.2903C77.4944 57.1677 76.9502 55.8342 76.9502 54.2897C76.9502 52.7112 77.4931 51.3685 78.5816 50.2629C79.6688 49.1573 80.9593 48.6045 82.4543 48.6045ZM82.4543 50.052C81.2989 50.052 80.3272 50.4594 79.5364 51.2755C78.7469 52.0916 78.3508 53.0963 78.3508 54.2884C78.3508 55.4818 78.7456 56.4852 79.5364 57.3013C80.3258 58.1174 81.2989 58.5248 82.4543 58.5248C83.5927 58.5248 84.5605 58.1135 85.3592 57.2882C86.1578 56.4642 86.5565 55.4634 86.5565 54.2884C86.5565 53.1134 86.1578 52.1126 85.3592 51.2886C84.5605 50.4646 83.5927 50.052 82.4543 50.052Z" fill="#3A3A34"/>
<path d="M100.828 48.894H102.357L97.7705 59.9999L93.1831 48.894H94.7123L97.7705 56.2626L100.828 48.894Z" fill="#3A3A34"/>
<path d="M116.703 56.2626L117.927 56.9726C117.468 57.8673 116.805 58.5917 115.938 59.1432C115.072 59.6947 114.121 59.9725 113.085 59.9725C111.59 59.9725 110.298 59.4104 109.212 58.2878C108.125 57.1651 107.581 55.8317 107.581 54.2873C107.581 52.7088 108.124 51.3661 109.212 50.2605C110.299 49.1549 111.59 48.6021 113.085 48.6021C114.035 48.6021 114.932 48.8483 115.773 49.3396C116.614 49.8307 117.264 50.4543 117.723 51.2076L110.614 57.6814C111.327 58.2433 112.151 58.5237 113.086 58.5237C113.868 58.5237 114.577 58.3218 115.213 57.9184C115.849 57.5175 116.346 56.9647 116.703 56.2626ZM109.67 56.6582L115.76 51.0792C114.995 50.3954 114.104 50.0535 113.085 50.0535C111.929 50.0535 110.958 50.4609 110.167 51.277C109.377 52.0931 108.981 53.0978 108.981 54.2899C108.982 55.1492 109.211 55.939 109.67 56.6582Z" fill="#3A3A34"/>
<path d="M124.78 57.3683C125.12 58.0704 125.68 58.4215 126.461 58.4215C126.987 58.4215 127.429 58.2368 127.786 57.8687C128.143 57.5006 128.321 57.0447 128.321 56.4998C128.321 56.061 128.198 55.6706 127.951 55.3287C127.705 54.9868 127.395 54.7628 127.021 54.658L125.798 54.2899C125.187 54.0973 124.694 53.7502 124.32 53.2498C123.946 52.7494 123.758 52.1835 123.758 51.5521C123.758 50.7622 124.026 50.0915 124.561 49.5387C125.096 48.9859 125.747 48.7095 126.51 48.7095C127.053 48.7095 127.559 48.868 128.026 49.1837C128.493 49.4994 128.828 49.9212 129.032 50.4465L127.758 50.9993C127.555 50.4373 127.138 50.157 126.51 50.157C126.119 50.157 125.796 50.2971 125.542 50.5775C125.288 50.8578 125.16 51.1827 125.16 51.5508C125.16 52.2529 125.492 52.6996 126.154 52.8935L127.378 53.2616C128.074 53.4555 128.64 53.8497 129.072 54.4458C129.505 55.0418 129.722 55.7269 129.722 56.4985C129.722 57.1299 129.577 57.701 129.289 58.2093C129 58.7189 128.609 59.121 128.116 59.4197C127.623 59.7184 127.071 59.8677 126.46 59.8677C125.849 59.8677 125.288 59.7053 124.779 59.3804C124.269 59.0555 123.861 58.6128 123.555 58.0508L124.78 57.3683Z" fill="#3A3A34"/>
<path d="M54.7749 24.4781C54.7749 18.4392 54.788 12.4016 54.7579 6.36266C54.7539 5.5911 54.9624 5.36317 55.7428 5.36971C60.2764 5.40246 64.8101 5.39329 69.3437 5.36578C69.9142 5.36185 70.0899 5.54394 70.0729 6.08102C70.0467 6.89058 70.0191 7.70537 70.0795 8.5123C70.1332 9.22885 69.8119 9.34152 69.1929 9.33628C66.17 9.3127 63.1472 9.34937 60.1256 9.30876C59.365 9.29828 59.1105 9.49216 59.1184 10.286C59.1564 14.2827 59.1512 18.2807 59.121 22.2787C59.1158 22.9533 59.323 23.1341 59.9787 23.1249C62.3577 23.0895 64.7366 23.1301 67.1156 23.0987C67.7818 23.0895 68.0166 23.3227 67.9838 23.975C67.9444 24.7558 67.9392 25.5418 67.9851 26.3225C68.0231 26.967 67.7608 27.1281 67.1549 27.1216C64.776 27.0927 62.397 27.136 60.0181 27.0941C59.3007 27.0823 59.1197 27.3272 59.1237 28.0084C59.1473 32.9011 59.1223 37.7925 59.1512 42.6852C59.1551 43.4384 58.9728 43.7541 58.1702 43.6899C57.3362 43.6231 56.489 43.6323 55.6536 43.6886C54.9257 43.7371 54.7605 43.4332 54.7618 42.7638C54.7828 36.6659 54.7749 30.572 54.7749 24.4781Z" fill="#3A3A34"/>
<path d="M91.8925 26.5856C91.8925 31.9512 91.8794 37.3181 91.9069 42.6837C91.9109 43.4369 91.7286 43.7526 90.926 43.6885C90.0919 43.6216 89.2447 43.623 88.4106 43.6885C87.587 43.754 87.5202 43.3361 87.5215 42.6785C87.5372 34.7978 87.532 26.9158 87.532 19.035C87.532 16.1007 87.5149 13.1651 87.5451 10.2321C87.5516 9.55095 87.3654 9.2942 86.6481 9.31254C84.8579 9.35707 83.0665 9.30599 81.2764 9.34005C80.6574 9.35184 80.4239 9.16451 80.462 8.52918C80.5105 7.72225 80.4895 6.90876 80.4672 6.09921C80.4541 5.62239 80.5826 5.38004 81.1203 5.38135C86.8566 5.39314 92.5915 5.39314 98.3278 5.38397C98.8051 5.38266 98.9678 5.57523 98.9559 6.03371C98.935 6.89959 98.9205 7.7681 98.9612 8.63267C98.9887 9.21036 98.7409 9.34267 98.2176 9.33612C96.455 9.31385 94.6898 9.37803 92.9299 9.30599C92.0394 9.26931 91.8689 9.58763 91.8742 10.4064C91.9096 15.7968 91.8925 21.1912 91.8925 26.5856Z" fill="#3A3A34"/>
<path d="M110.873 14.1563C113.429 15.2894 114.25 17.5111 114.498 20.0433C114.602 21.0965 114.525 22.1667 114.55 23.2291C114.561 23.7046 114.355 23.8749 113.892 23.8566C113.277 23.833 112.659 23.8277 112.044 23.8566C111.406 23.8867 111.217 23.5802 111.227 22.9907C111.244 21.9571 111.27 20.9183 111.194 19.8887C111.007 17.3814 108.868 16.0427 106.511 16.9138C105.231 17.388 104.456 18.77 104.455 20.6315C104.45 25.9171 104.454 31.2028 104.452 36.4885C104.452 37.0478 104.471 37.6006 104.6 38.1534C105.041 40.0332 106.259 40.9659 108.17 40.8493C109.857 40.7458 111.072 39.5472 111.187 37.7225C111.276 36.3012 111.248 34.8707 111.222 33.4455C111.211 32.8573 111.42 32.6713 111.993 32.6516C114.545 32.5652 114.55 32.5508 114.541 35.0646C114.537 36.2082 114.586 37.3517 114.384 38.4927C113.643 42.6885 110.627 44.326 106.855 43.9238C103.288 43.5426 101.309 41.3144 101.112 37.5771C100.824 32.1027 101.035 26.6206 101.011 21.1423C101.007 20.1206 101.166 19.0896 101.436 18.0823C102.345 14.6947 105.15 13.4005 108.286 13.5616C108.813 13.5891 109.333 13.7293 109.857 13.8171C110.17 14.0149 110.535 14.045 110.873 14.1563Z" fill="#3A3A34"/>
<path d="M73.3659 24.4776C73.3659 18.4414 73.3777 12.4038 73.3502 6.36747C73.3462 5.61163 73.5298 5.30641 74.3272 5.37191C75.1613 5.43871 76.0072 5.42692 76.8439 5.37453C77.5665 5.32868 77.7474 5.62735 77.7422 6.30067C77.7173 9.71049 77.7304 13.1203 77.7304 16.5301C77.7304 25.1942 77.7304 33.8582 77.7304 42.5223C77.7304 43.6738 77.7278 43.6738 76.5684 43.6738C75.7855 43.6738 74.9986 43.6345 74.2183 43.6869C73.5561 43.7314 73.337 43.5126 73.3515 42.8419C73.3921 41.0263 73.3659 39.2094 73.3659 37.3925C73.3659 33.0854 73.3659 28.7822 73.3659 24.4776Z" fill="#3A3A34"/>
<path d="M110.873 14.1566C110.488 14.1868 110.127 14.1435 109.861 13.82C110.245 13.7898 110.574 13.93 110.873 14.1566Z" fill="#3A3A34"/>
<path d="M130.693 19.3593C130.635 18.9139 130.576 18.4672 130.518 18.0218C130.42 17.7612 130.332 17.4952 130.221 17.2411C128.95 14.3317 126.461 13.4435 123.586 13.5614C120.911 13.6702 118.808 14.8308 117.78 17.4808C117.413 18.4292 117.222 19.4143 117.219 20.423C117.206 25.9798 117.169 31.538 117.229 37.0948C117.266 40.4745 118.93 43.2621 122.574 43.8621C125.596 44.3599 129.044 43.4481 130.346 39.9964C130.461 39.382 130.575 38.7677 130.689 38.1546C130.719 37.8952 130.576 37.5586 130.996 37.476C130.997 31.7201 130.998 25.9654 130.998 20.2095C130.501 20.068 130.753 19.6567 130.693 19.3593ZM127.502 28.7687C127.502 31.424 127.499 34.078 127.505 36.7333C127.506 37.2114 127.453 37.6778 127.342 38.1441C126.896 40.0043 125.797 40.8898 123.956 40.8583C122.181 40.8282 121.064 39.8366 120.692 37.9843C120.558 37.3215 120.557 36.6573 120.558 35.9879C120.564 31.0415 120.56 26.0951 120.562 21.1487C120.562 20.3077 120.609 19.472 120.945 18.6847C121.56 17.245 122.752 16.5534 124.369 16.6857C125.893 16.8114 126.893 17.6616 127.283 19.151C127.44 19.7497 127.51 20.3523 127.507 20.9732C127.495 23.5708 127.502 26.1698 127.502 28.7687Z" fill="#3A3A34"/>
<path d="M0.0288576 25.0518C0.52196 25.5181 0.187542 26.1181 0.287212 26.6486C-0.121958 26.5831 0.0314805 26.2543 0.0170546 26.0264C-0.00523994 25.7028 0.0223004 25.3766 0.0288576 25.0518Z" fill="#3A3A34"/>
<path d="M0.288353 21.6538C0.214912 22.145 0.489003 22.6965 0.033933 23.1223C0.0273758 22.7542 0.02213 22.3848 0.0142614 22.0167C0.0116385 21.8215 0.0588504 21.6695 0.288353 21.6538Z" fill="#3A3A34"/>
<path d="M0.797324 18.8735C0.83929 19.3399 0.738309 19.7787 0.536347 20.1979C0.495692 19.7316 0.586182 19.2914 0.797324 18.8735Z" fill="#3A3A34"/>
<path d="M47.4885 15.3202C47.2432 15.163 47.1947 14.9246 47.2144 14.6587C47.3954 14.8421 47.4806 15.0648 47.4885 15.3202Z" fill="#3A3A34"/>
<path d="M49.1869 22.5771C48.9955 20.0737 48.4761 17.6398 47.4899 15.3186C47.3339 15.1247 47.3155 14.8745 47.2158 14.6571C44.6979 8.89588 40.534 4.76427 34.8371 2.13518C28.5029 -0.78864 20.2932 -0.427092 17.3425 1.51819C17.4776 1.66753 17.6244 1.55618 17.7648 1.53653C20.3378 1.18023 22.9161 1.00076 25.501 1.39506C26.0911 1.48545 26.7127 1.5457 27.3803 1.99371C25.5692 2.15745 23.9535 1.94917 22.3351 1.97668C20.2972 2.01205 18.3038 2.23998 16.355 2.7823C12.2383 3.92721 8.73023 6.08864 5.86997 9.26659C3.37561 12.0411 1.65893 15.2348 0.797314 18.8738C0.689776 19.3114 0.647809 19.762 0.536337 20.1982C0.453716 20.6829 0.371095 21.1689 0.289786 21.6536C-0.0433207 22.1003 0.319949 22.6662 0.0353658 23.122C0.0327429 23.7652 0.0314315 24.4084 0.0288086 25.0516C0.199296 25.2782 0.124544 25.5415 0.14815 25.7917C0.174379 26.0799 0.0589718 26.3917 0.287163 26.6484C0.376341 27.2327 0.447159 27.8195 0.55732 28.3998C1.22091 31.9236 2.61366 35.1199 4.88639 37.9128C6.43389 39.8148 8.33024 41.3095 10.2987 42.7609C12.2921 44.2294 14.6855 44.663 16.8533 45.6625C16.873 45.6716 16.8953 45.6756 16.9163 45.6821C18.0244 46.0384 19.1719 46.214 20.3155 46.4078C21.5889 46.5493 22.865 46.6751 24.1344 46.8414C24.7652 46.9239 25.3934 46.9187 26.0242 46.9318C26.2524 46.937 26.5003 46.8873 26.7049 47.0864C26.5108 47.2475 26.3141 47.2108 26.1239 47.2017L26.1213 47.2004C25.1705 47.4977 24.1843 47.4702 23.2072 47.482C22.0269 47.4964 20.8453 47.461 19.665 47.4466C19.0959 47.4466 18.5254 47.4466 17.8854 47.4466C18.0021 47.5501 18.0808 47.6195 18.1516 47.6824C18.1726 47.6929 18.191 47.7073 18.2028 47.7283C18.8965 47.9313 19.5785 48.1841 20.284 48.3282C25.2072 49.3408 29.9782 48.8208 34.5643 46.7825C39.818 44.4481 43.8244 40.7409 46.5076 35.6557C48.6663 31.5634 49.541 27.1881 49.1869 22.5771ZM45.3851 26.3052C45.3785 26.4978 45.3982 26.7139 45.1293 26.7689C44.3962 26.917 44.2992 27.5195 44.1838 28.1025C43.3903 32.1267 41.9373 35.8443 39.0967 38.9005C36.3846 41.8177 32.984 43.3779 29.0707 43.9255C24.7416 44.532 20.5581 43.9359 16.5963 42.1714C11.3728 39.8462 7.73353 35.974 5.86473 30.5246C5.67981 29.9849 5.44638 29.4871 4.99262 28.9671C4.83787 29.8552 5.15393 30.6006 5.16704 31.3643C5.60375 32.6664 5.99325 33.9829 6.58471 35.2339C7.59452 37.373 8.944 39.2699 10.5203 41.0187C10.7538 41.278 10.9807 41.5413 11.2102 41.8033C11.5852 41.9867 11.8947 42.2487 12.1544 42.5723C12.3708 42.7504 12.5872 42.9299 12.8036 43.108C12.8914 43.1526 12.9793 43.1958 13.0672 43.2403C13.2049 43.3478 13.4829 43.4277 13.34 43.6386C13.2206 43.8141 13.0501 43.6255 12.9321 43.5089C12.8403 43.4264 12.7498 43.3425 12.658 43.26C12.338 43.167 12.1256 42.9233 11.8934 42.7085C11.5813 42.4478 11.2692 42.1871 10.9571 41.9251C9.94856 41.1352 9.22858 40.103 8.44171 39.1061C6.50209 36.6513 5.24704 33.9121 4.61492 30.8678C3.98412 28.8426 4.04969 26.7545 4.08903 24.6756C4.15461 21.1951 4.75656 17.8324 6.47324 14.7448C8.18336 11.6677 10.818 9.61373 13.9419 8.14396C16.2487 7.05932 18.6539 6.23011 21.1627 5.74412C25.5705 4.89003 29.8182 5.46117 33.8693 7.35275C39.0364 9.76569 42.6625 13.6445 44.7359 18.9681C45.1333 19.9886 45.1254 21.0706 45.3496 22.1147C45.6473 23.5124 45.431 24.9088 45.3851 26.3052Z" fill="#3A3A34"/>
<path d="M24.2841 15.9946C25.8067 16.0548 27.1982 15.671 28.6224 15.6278C29.5692 15.599 30.3627 15.9134 31.084 16.5356C33.539 18.6486 35.5927 21.1427 37.7802 23.5085C38.1671 23.9264 38.0753 24.3967 37.6989 24.8054C36.3783 26.2411 35.0616 27.682 33.7305 29.1099C32.7429 30.1696 31.7135 31.1888 30.6394 32.1608C29.9666 32.7699 29.1588 32.9887 28.2788 33.0044C27.3568 33.0214 26.4401 32.9454 25.5208 32.8865C24.9792 32.8524 24.4297 32.9454 23.8841 32.9782C23.7622 32.9861 23.6048 33.0555 23.5392 32.8957C23.4789 32.7489 23.6166 32.6599 23.7032 32.5682C25.0684 31.1115 26.427 29.6509 27.8027 28.2047C28.6198 27.3454 29.463 26.5122 30.2919 25.666C31.442 24.4923 31.4682 23.7757 30.2604 22.678C28.1057 20.7235 26.3339 18.4259 24.4048 16.2684C24.3668 16.2251 24.355 16.1583 24.2841 15.9946Z" fill="#3A3A34"/>
<path d="M14.5207 32.3229C16.4905 30.2008 18.4275 28.0498 20.5009 26.0259C20.5795 25.9486 20.6556 25.87 20.733 25.7927C22.0143 24.4972 22.0654 23.8671 20.7277 22.62C18.7291 20.7573 17.0413 18.6233 15.2433 16.5837C15.1226 16.4462 14.8721 16.3191 14.9613 16.1069C15.0544 15.8868 15.3128 16.0152 15.4977 15.9943C16.4564 15.8868 17.4176 15.803 18.375 15.6812C19.6287 15.5214 20.7199 15.7336 21.727 16.6165C24.1283 18.7229 26.1755 21.1555 28.3092 23.5095C28.679 23.9182 28.6292 24.4225 28.258 24.8194C25.9368 27.3018 23.7336 29.8982 21.1907 32.167C20.7946 32.5207 20.35 32.7997 19.7979 32.8469C18.7343 33.0945 17.6616 32.9242 16.5954 32.8849C15.819 32.856 15.04 32.9543 14.2741 32.8849C14.2243 32.5954 14.4354 32.4906 14.5207 32.3229Z" fill="#3A3A34"/>
<path d="M14.5202 32.3232C14.4652 32.4804 14.4101 32.6376 14.3353 32.8472C16.1805 32.8472 17.989 32.8472 19.7975 32.8472C19.1378 33.159 18.4375 33.1158 17.7477 33.0463C16.6999 32.9415 15.6546 32.9324 14.6055 32.9913C14.4088 33.0018 14.1399 33.2284 14.0258 32.9429C13.934 32.7136 14.2265 32.5892 14.3589 32.4267C14.397 32.3796 14.4652 32.3573 14.5202 32.3232Z" fill="#3A3A34"/>
</svg>
